# Blender v2.93.6 OBJ File: 'Chief Left Foot.blend'
# www.blender.org
mtllib Chief Left Foot.mtl
o MasterChief
v 0.050583 -0.001131 0.026577
v 0.049995 -0.006269 0.034211
v 0.060418 -0.042236 0.022614
v 0.056748 -0.042236 0.039056
v 0.029149 -0.042236 -0.064000
v 0.005221 -0.042236 -0.060183
v 0.011973 -0.004508 -0.055045
v -0.000064 -0.042236 -0.044475
v 0.010212 0.000630 -0.046384
v 0.031498 0.000630 0.033183
v 0.037370 -0.004508 0.039790
v 0.021662 -0.042236 0.036854
v 0.034141 -0.042236 0.047717
v 0.030030 -0.001131 -0.050054
v 0.040600 -0.042236 -0.051522
v 0.025773 -0.006269 -0.056366
v -0.031480 0.058324 -0.016289
v -0.019589 0.058324 0.028192
v -0.007258 0.059498 0.034211
v -0.038527 0.050396 0.046249
v -0.026048 0.062728 0.024522
v -0.042637 0.057824 0.045368
v -0.085357 -0.041943 0.062984
v -0.042490 -0.041943 0.060342
v -0.081980 -0.000985 0.059021
v -0.039995 -0.003480 0.056525
v -0.075227 0.025000 0.053589
v -0.022232 0.025146 0.049625
v -0.068475 0.050984 0.048157
v -0.084916 0.054360 0.036560
v -0.091523 0.047754 0.038762
v -0.107524 0.002392 0.028045
v -0.112956 -0.041943 0.029367
v 0.003312 0.027495 -0.026565
v 0.023865 0.015311 -0.031850
v -0.016213 -0.003187 -0.040071
v 0.055574 0.006649 -0.031410
v 0.053078 -0.009499 -0.047265
v 0.059978 0.009585 -0.033318
v -0.001239 0.030872 -0.035080
v 0.015790 0.027495 0.019678
v 0.036196 0.015311 0.013952
v 0.063355 0.006649 -0.002343
v 0.068199 0.009585 -0.002930
v -0.025168 -0.042236 -0.034199
v -0.063336 -0.003480 -0.030676
v -0.067300 -0.041943 -0.032731
v -0.101065 -0.000985 -0.011738
v -0.105909 -0.041943 -0.013500
v 0.078328 -0.040328 0.012191
v 0.083173 -0.019482 0.011897
v 0.069227 -0.009499 0.012631
v 0.005661 -0.003187 0.041111
v 0.066731 -0.040328 -0.031116
v 0.061152 -0.040328 -0.051522
v 0.082145 -0.037685 -0.040512
v -0.008432 -0.042236 0.028045
v -0.030453 -0.042236 0.034652
v 0.090953 -0.037685 -0.007775
v 0.088898 -0.019482 -0.009243
v 0.081411 0.000043 -0.004692
v 0.072456 0.000043 -0.038456
v 0.081118 -0.019482 -0.038310
v -0.057024 0.050396 -0.022455
v -0.083889 0.050984 -0.009096
v -0.092257 0.054360 0.009108
v -0.099156 0.047754 0.010576
v -0.092403 0.025000 -0.010417
v -0.044546 0.025146 -0.033465
v -0.023846 0.059498 -0.027740
v 0.016084 0.030872 0.029367
v 0.072897 -0.040328 -0.008215
v 0.065557 -0.019482 -0.053724
vt 0.247900 0.540500
vt 0.242900 0.534800
vt 0.260900 0.499200
vt 0.248200 0.499200
vt 0.285700 0.499200
vt 0.309500 0.499200
vt 0.304400 0.536500
vt 0.323800 0.499200
vt 0.309400 0.542400
vt 0.224600 0.542400
vt 0.229400 0.536500
vt 0.210300 0.499200
vt 0.224400 0.499200
vt 0.285900 0.540500
vt 0.272700 0.499200
vt 0.290900 0.534800
vt 0.848400 0.869000
vt 0.803900 0.869000
vt 0.801200 0.860900
vt 0.776000 0.872100
vt 0.809000 0.874300
vt 0.785800 0.885600
vt 0.700300 0.841900
vt 0.725400 0.820800
vt 0.723300 0.864100
vt 0.746700 0.842000
vt 0.741000 0.875700
vt 0.772200 0.849700
vt 0.758800 0.887200
vt 0.745500 0.903500
vt 0.742400 0.899300
vt 0.711100 0.879600
vt 0.684300 0.855300
vt 0.847900 0.827400
vt 0.849500 0.809200
vt 0.876900 0.818700
vt 0.866100 0.805600
vt 0.863300 0.792900
vt 0.841000 0.784900
vt 0.858700 0.773700
vt 0.841500 0.779300
vt 0.852100 0.831600
vt 0.804400 0.827400
vt 0.802900 0.809200
vt 0.811400 0.784900
vt 0.810900 0.779300
vt 0.889500 0.784900
vt 0.902500 0.800100
vt 0.905600 0.842000
vt 0.926800 0.820800
vt 0.929000 0.864100
vt 0.951900 0.841900
vt 0.941200 0.879600
vt 0.968000 0.855300
vt 0.782500 0.748400
vt 0.792700 0.762000
vt 0.769900 0.759400
vt 0.793700 0.773700
vt 0.789000 0.792900
vt 0.786200 0.805600
vt 0.775400 0.818700
vt 0.006400 0.478300
vt 0.017100 0.471200
vt 0.008300 0.497000
vt 0.020000 0.503100
vt 0.079700 0.503100
vt 0.059100 0.518600
vt 0.075500 0.518500
vt 0.063000 0.532100
vt 0.093300 0.478300
vt 0.091300 0.497000
vt 0.082500 0.471200
vt 0.029700 0.450200
vt 0.079900 0.450200
vt 0.029200 0.432500
vt 0.087200 0.418300
vt 0.012400 0.418300
vt 0.019000 0.385500
vt 0.080500 0.385500
vt 0.049800 0.371600
vt 0.809600 0.739600
vt 0.811800 0.755400
vt 0.809800 0.770700
vt 0.842600 0.770700
vt 0.840600 0.755400
vt 0.836900 0.739400
vt 0.842800 0.739600
vt 0.906700 0.903500
vt 0.909800 0.899300
vt 0.923700 0.917700
vt 0.927200 0.913900
vt 0.911200 0.875700
vt 0.880100 0.849700
vt 0.893500 0.887200
vt 0.876300 0.872100
vt 0.851000 0.860900
vt 0.800200 0.831600
vt 0.736100 0.811500
vt 0.749700 0.800100
vt 0.758300 0.783100
vt 0.815500 0.739400
vt 0.859600 0.762000
vt 0.869800 0.748400
vt 0.882500 0.759400
vt 0.040600 0.518600
vt 0.024200 0.518500
vt 0.036700 0.532100
vn 0.5762 0.6000 0.5549
vn 0.6605 0.4493 0.6016
vn 0.4999 -0.7746 0.3874
vn 0.6456 -0.5283 0.5513
vn 0.2893 -0.5325 -0.7954
vn -0.5589 -0.5248 -0.6420
vn -0.4597 0.5312 -0.7116
vn -0.4368 -0.7753 -0.4562
vn -0.3343 0.6286 -0.7022
vn 0.0321 0.6054 0.7952
vn -0.0367 0.5236 0.8512
vn -0.3301 -0.6973 0.6362
vn -0.1543 -0.5206 0.8397
vn 0.2237 0.6007 -0.7675
vn 0.2383 -0.7751 -0.5851
vn 0.2868 0.4582 -0.8413
vn -0.1499 0.9881 -0.0334
vn 0.0425 0.9804 0.1923
vn 0.4239 0.8000 0.4245
vn 0.2375 0.3531 0.9049
vn 0.2758 0.9560 0.1001
vn 0.1855 0.7678 0.6133
vn -0.3329 -0.5727 0.7491
vn 0.4301 -0.5892 0.6840
vn -0.3908 0.1977 0.8990
vn 0.2528 0.0089 0.9675
vn -0.2883 0.2071 0.9348
vn 0.2697 0.1710 0.9476
vn -0.1722 0.6879 0.7050
vn -0.3892 0.8771 0.2813
vn -0.6969 0.4409 0.5656
vn -0.9505 0.1747 0.2570
vn -0.7887 -0.5774 0.2111
vn 0.6888 0.5283 -0.4964
vn 0.1993 0.8506 -0.4866
vn -0.1328 0.0750 -0.9883
vn -0.1782 0.9288 -0.3249
vn 0.0582 0.4410 -0.8956
vn -0.0901 0.9246 -0.3701
vn 0.5988 0.2682 -0.7546
vn 0.8418 0.5330 0.0850
vn 0.4172 0.8497 0.3226
vn 0.0137 0.9292 0.3694
vn 0.1133 0.9246 0.3636
vn -0.1399 -0.7547 -0.6409
vn -0.3156 0.0878 -0.9448
vn -0.2009 -0.6322 -0.7483
vn -0.7897 0.1985 -0.5804
vn -0.6634 -0.5726 -0.4816
vn 0.5276 -0.6935 0.4906
vn 0.6898 0.2154 0.6912
vn 0.4998 0.4408 0.7455
vn 0.3961 -0.0936 0.9134
vn 0.3706 -0.9283 0.0292
vn 0.2100 -0.6936 -0.6890
vn 0.8646 -0.5022 -0.0157
vn 0.0740 -0.8494 0.5226
vn 0.2611 -0.8830 0.3900
vn 0.7578 -0.5018 -0.4169
vn 0.9884 0.0570 -0.1406
vn 0.7634 0.6167 0.1918
vn 0.5647 0.6177 -0.5473
vn 0.9258 0.0555 -0.3738
vn -0.4863 0.8664 -0.1129
vn -0.8863 0.4416 -0.1393
vn -0.7177 0.2071 -0.6648
vn -0.2401 0.1708 -0.9556
vn -0.4883 0.6922 -0.5313
vn -0.3252 0.6902 -0.6464
vn 0.1549 0.7989 -0.5812
vn 0.8951 0.2701 0.3547
vn 0.3061 -0.9282 -0.2114
vn 0.2481 0.2151 -0.9445
usemtl masterchief
s 1
f 1/1/1 2/2/2 3/3/3
f 2/2/2 4/4/4 3/3/3
f 5/5/5 6/6/6 7/7/7
f 6/6/6 8/8/8 7/7/7
f 7/7/7 8/8/8 9/9/9
f 1/1/1 10/10/10 2/2/2
f 2/2/2 10/10/10 11/11/11
f 10/10/10 12/12/12 11/11/11
f 12/12/12 13/13/13 11/11/11
f 11/11/11 13/13/13 2/2/2
f 2/2/2 13/13/13 4/4/4
f 14/14/14 15/15/15 16/16/16
f 15/15/15 5/5/5 16/16/16
f 5/5/5 7/7/7 16/16/16
f 7/7/7 9/9/9 16/16/16
f 16/16/16 9/9/9 14/14/14
f 17/17/17 18/18/18 19/19/19
f 19/19/19 18/18/18 20/20/20
f 18/18/18 21/21/21 20/20/20
f 20/20/20 21/21/21 22/22/22
f 23/23/23 24/24/24 25/25/25
f 24/24/24 26/26/26 25/25/25
f 25/25/25 26/26/26 27/27/27
f 26/26/26 28/28/28 27/27/27
f 28/28/28 20/20/20 27/27/27
f 27/27/27 20/20/20 29/29/29
f 20/20/20 22/22/22 29/29/29
f 30/30/30 31/31/31 29/29/29
f 29/29/29 31/31/31 27/27/27
f 31/31/31 32/32/32 27/27/27
f 27/27/27 32/32/32 25/25/25
f 25/25/25 32/32/32 23/23/23
f 32/32/32 33/33/33 23/23/23
f 34/34/34 35/35/35 36/36/36
f 36/36/36 35/35/35 9/37/9
f 9/37/9 35/35/35 14/38/14
f 35/35/35 37/39/37 14/38/14
f 14/38/14 37/39/37 38/40/38
f 37/39/37 39/41/39 38/40/38
f 40/42/40 41/43/41 34/34/34
f 34/34/34 41/43/41 35/35/35
f 41/43/41 42/44/42 35/35/35
f 42/44/42 43/45/43 35/35/35
f 35/35/35 43/45/43 37/39/37
f 43/45/43 44/46/44 37/39/37
f 37/39/37 44/46/44 39/41/39
f 8/47/8 45/48/45 9/37/9
f 9/37/9 45/48/45 36/36/36
f 36/36/36 45/48/45 46/49/46
f 45/48/45 47/50/47 46/49/46
f 46/49/46 47/50/47 48/51/48
f 47/50/47 49/52/49 48/51/48
f 48/51/48 49/52/49 32/53/32
f 49/52/49 33/54/33 32/53/32
f 50/55/50 51/56/51 3/57/3
f 51/56/51 52/58/52 3/57/3
f 3/57/3 52/58/52 1/59/1
f 52/58/52 43/45/43 1/59/1
f 43/45/43 42/44/42 1/59/1
f 1/59/1 42/44/42 10/60/10
f 10/60/10 42/44/42 53/61/53
f 42/44/42 41/43/41 53/61/53
f 13/62/13 12/63/12 4/64/4
f 4/64/4 12/63/12 3/65/3
f 12/63/12 15/66/15 3/65/3
f 3/65/3 15/66/15 54/67/54
f 15/66/15 55/68/55 54/67/54
f 54/67/54 55/68/55 56/69/56
f 6/70/6 5/71/5 8/72/8
f 5/71/5 15/66/15 8/72/8
f 15/66/15 12/63/12 8/72/8
f 12/63/12 57/73/57 8/72/8
f 8/72/8 57/73/57 45/74/45
f 57/73/57 58/75/58 45/74/45
f 45/74/45 58/75/58 47/76/47
f 58/75/58 24/77/24 47/76/47
f 24/77/24 23/78/23 47/76/47
f 47/76/47 23/78/23 49/79/49
f 23/78/23 33/80/33 49/79/49
f 50/55/50 59/81/59 51/56/51
f 59/81/59 60/82/60 51/56/51
f 51/56/51 60/82/60 61/83/61
f 61/83/61 60/82/60 62/84/62
f 60/82/60 63/85/63 62/84/62
f 54/86/54 56/87/56 63/85/63
f 66/88/64 67/89/65 30/90/30
f 30/90/30 67/89/65 31/91/31
f 31/91/31 67/89/65 32/53/32
f 67/89/65 68/92/66 32/53/32
f 32/53/32 68/92/66 48/51/48
f 48/51/48 68/92/66 46/49/46
f 68/92/66 69/93/67 46/49/46
f 46/49/46 69/93/67 36/36/36
f 69/93/67 40/42/40 36/36/36
f 36/36/36 40/42/40 34/34/34
f 66/88/64 65/94/68 67/89/65
f 67/89/65 65/94/68 68/92/66
f 65/94/68 64/95/69 68/92/66
f 68/92/66 64/95/69 69/93/67
f 64/95/69 70/96/70 69/93/67
f 69/93/67 70/96/70 40/42/40
f 20/20/20 28/28/28 19/19/19
f 19/19/19 28/28/28 71/97/71
f 71/97/71 28/28/28 53/61/53
f 28/28/28 26/26/26 53/61/53
f 26/26/26 58/98/58 53/61/53
f 58/98/58 57/99/57 53/61/53
f 53/61/53 57/99/57 10/60/10
f 57/99/57 12/100/12 10/60/10
f 26/26/26 24/24/24 58/98/58
f 22/22/22 21/21/21 17/17/17 64/95/69 65/94/68 66/88/64 30/30/30 29/29/29
f 17/17/17 19/19/19 70/96/70
f 19/19/19 71/97/71 70/96/70
f 70/96/70 71/97/71 40/42/40
f 40/42/40 71/97/71 41/43/41
f 71/97/71 53/61/53 41/43/41
f 64/95/69 17/17/17 70/96/70
f 54/86/54 63/85/63 72/101/72
f 63/85/63 60/82/60 72/101/72
f 72/101/72 60/82/60 59/81/59
f 51/56/51 61/83/61 52/58/52
f 52/58/52 61/83/61 44/46/44
f 44/46/44 61/83/61 39/41/39
f 61/83/61 62/84/62 39/41/39
f 39/41/39 62/84/62 38/40/38
f 38/40/38 62/84/62 73/102/73
f 62/84/62 63/85/63 73/102/73
f 63/85/63 56/87/56 73/102/73
f 56/87/56 55/103/55 73/102/73
f 55/103/55 15/104/15 73/102/73
f 73/102/73 15/104/15 38/40/38
f 15/104/15 14/38/14 38/40/38
f 17/17/17 21/21/21 18/18/18
f 54/67/54 72/105/72 3/65/3
f 3/65/3 72/105/72 50/106/50
f 72/105/72 59/107/59 50/106/50
f 43/45/43 52/58/52 44/46/44
